<svg xmlns="http://www.w3.org/2000/svg" shape-rendering="geometricPrecision" text-rendering="geometricPrecision" image-rendering="optimizeQuality" fill-rule="evenodd" clip-rule="evenodd" viewBox="0 0 512 499.9"><path fill="#042e60" fill-rule="nonzero" d="M114.5 278.7a11.1 11.1 0 0 1-.4-15.6 10.9 10.9 0 0 1 15.5-.4l115.3 111.4V11a11 11 0 1 1 22.2 0v362.4l111-110.6a10.9 10.9 0 0 1 15.5 0 11.1 11.1 0 0 1-.2 15.7L264.7 406.9a11 11 0 0 1-8.7 4.2 11 11 0 0 1-8.6-4L114.5 278.7zM490 389.4a11 11 0 0 1 22.1 0V489c0 6-5 11-11 11H11c-6 0-11-5-11-11v-99.5a11 11 0 1 1 22.1 0v88.4H490v-88.4z"/></svg>