<svg viewBox="34 12.1 122 114.5" xmlns="http://www.w3.org/2000/svg"><path d="M144 120v4.6c0 1.1-1 2-2.1 2H47.5a2 2 0 0 1-2-2.1V71c-2.4 1-4.5 1-6.3.3A7.5 7.5 0 0 1 34 65a10 10 0 0 1 2.7-7.7l56.7-44.5a2 2 0 0 1 2.6 0L152.8 57l.3.2c2.6 2.9 3.3 6 2.6 8.7a8.1 8.1 0 0 1-5 5.7c-2 .7-4.3.7-6.7-.4V120ZM39.5 60.5a5.9 5.9 0 0 0-1.4 4c0 .8.3 1.4.7 1.9.4.5 1 .9 1.6 1 1 .5 2.5.4 4-.4L94 29.1a2 2 0 0 1 2.5 0l48 37.6c1.8 1.3 3.5 1.5 4.8 1 .6-.2 1.1-.5 1.5-1 .4-.5.7-1 .9-1.6.3-1.4 0-3.1-1.5-4.8L94.9 17 39.6 60.4Zm40.3 25.4h33.5c1.1 0 2 1 2 2.1v34.5h24.4v-54l-44.6-35-45.7 35 .1.5v53.5h28.3V87.9a2 2 0 0 1 2-2.1Zm31.5 4.2H81.9v32.4h29.5V90Z" class="prefix__st0" fill-rule="evenodd" fill="#042e60"/></svg>