<svg version="1.1" xmlns="http://www.w3.org/2000/svg" x="0" y="0" viewBox="0 0 106.9 122.9" xml:space="preserve" enable-background="new 0 0 106.86 122.88"><path fill="#042e60" d="M39.6 64.6c-1.4 0-2.6-1.4-2.6-3.2 0-1.7 1.2-3.1 2.6-3.1h35c1.4 0 2.5 1.4 2.5 3.1 0 1.8-1.1 3.2-2.6 3.2H39.6zm7.2 52a3.1 3.1 0 1 1 0 6.3H7.3a7.3 7.3 0 0 1-7.3-7.4V7.3A7.3 7.3 0 0 1 7.3 0h90a7.3 7.3 0 0 1 7.4 7.3v50.2a3.1 3.1 0 1 1-6.3 0V7.3a1 1 0 0 0-.3-.7 1 1 0 0 0-.8-.3h-90a1 1 0 0 0-.7.3 1 1 0 0 0-.3.7v108.2c0 .3.1.6.3.8l.7.3h39.5zm51.9-42.3c-.5-.4-1.1-.7-1.8-.7s-1.2.3-1.7.8l-4 4 11 10.7 4-4.1c.5-.5.7-1.1.7-1.8s-.3-1.3-.8-1.8l-7.4-7zM78.2 114l-4.3 1.4-4.4 1.5-5.7 1.8c-.4.1-.1-1.5.7-4.8l2.7-10.4L87.8 82l11 10.5L78.2 114zM39.6 87c-1.4 0-2.6-1.5-2.6-3.2 0-1.8 1.2-3.2 2.6-3.2h17.2c1.5 0 2.7 1.4 2.7 3.2 0 1.7-1.2 3.2-2.7 3.2H39.6zm0-44.7c-1.4 0-2.6-1.4-2.6-3.2 0-1.7 1.2-3.1 2.6-3.1h35C76 36 77 37.4 77 39c0 1.8-1.1 3.2-2.6 3.2H39.6zM24.5 79.5a3.7 3.7 0 1 1 0 7.4 3.7 3.7 0 0 1 0-7.4zm0-22a3.7 3.7 0 1 1 0 7.4 3.7 3.7 0 0 1 0-7.5zm0-22a3.7 3.7 0 1 1 0 7.4 3.7 3.7 0 0 1 0-7.5z" fill-rule="evenodd" clip-rule="evenodd"/></svg>