<svg version="1.1" xmlns="http://www.w3.org/2000/svg" x="0" y="0" xml:space="preserve" viewBox="0 0 122.9 122.9"><path fill="#042e60" d="m98 18.7-1-.7a3 3 0 0 0-1.2-.2 3 3 0 0 0-1.2.2l-1 .7-6.2 6.2c-1 1-2.3 1-3.4.3a34.5 34.5 0 0 0-7.5-3.7l-2.7-1a2.7 2.7 0 0 1-1.9-2.6V8.4c0-.4 0-.8-.2-1.2a3 3 0 0 0-.6-1 2.9 2.9 0 0 0-2.2-.8h-12a3 3 0 0 0-1 .2c-.4.1-.8.4-1.1.7a3 3 0 0 0-.7 1 3 3 0 0 0-.2 1.1v8.7c0 1.4-1 2.5-2.2 2.7a43.2 43.2 0 0 0-10.3 4c-1 .5-2.4.3-3.2-.5l-6.9-6.8c-.3-.3-.6-.6-1-.7l-1-.2a2.9 2.9 0 0 0-2.2 1l-8.4 8.3-.7 1a3 3 0 0 0-.2 1.2c0 .4 0 .8.2 1.1.1.4.4.7.7 1l6.2 6.3c1 .9 1 2.3.3 3.4a34.3 34.3 0 0 0-3.7 7.5l-1 2.7a2.7 2.7 0 0 1-2.6 1.8H8.4l-1.2.2a3 3 0 0 0-1 .7 3 3 0 0 0-.6 1L5.4 54v12c0 .3 0 .7.2 1 .1.4.4.7.7 1 .3.4.6.6 1 .7.3.2.7.2 1.1.2h8.7c1.4 0 2.5 1 2.7 2.3a43.4 43.4 0 0 0 4 10.5c.5 1 .3 2.3-.5 3.1l-6.8 6.8c-.3.3-.6.6-.7 1l-.2 1a2.9 2.9 0 0 0 1 2.2l8.2 8.4 1 .7 1.3.2c.4 0 .8 0 1.2-.2a3 3 0 0 0 1-.6l6.1-6.3c1-1 2.4-1 3.5-.3a34.5 34.5 0 0 0 7.5 3.7l2.7 1c1.1.3 1.8 1.4 1.8 2.5v9.5l.2 1.3.7 1a3 3 0 0 0 2.2.8h12c.3 0 .7 0 1-.2l1-.7c.4-.3.6-.6.7-1 .2-.3.2-.7.2-1.1v-8.8c0-1.3 1-2.4 2.3-2.6a44.6 44.6 0 0 0 10.5-4c1-.5 2.3-.3 3.1.5l6.8 6.8c.3.3.6.6 1 .7l1 .2c.5 0 .9 0 1.2-.2a2.8 2.8 0 0 0 1-.8l8.4-8.3.7-1 .2-1.2c0-.4 0-.9-.2-1.2l-.6-1-6.3-6.2c-1-.9-1-2.3-.3-3.4a34.3 34.3 0 0 0 3.7-7.5l1-2.7a2.7 2.7 0 0 1 2.5-1.9h9.5c.5 0 1 0 1.3-.2a3 3 0 0 0 1-.6 2.9 2.9 0 0 0 .8-2.2v-12c0-.4 0-.7-.2-1l-.7-1.1a3 3 0 0 0-1-.7 3 3 0 0 0-1.2-.2h-8.7c-1.3 0-2.4-1-2.6-2.2a47.3 47.3 0 0 0-4-10.3c-.5-1-.3-2.4.5-3.2l6.7-6.9h.1l.7-1 .2-1a2.9 2.9 0 0 0-1-2.2L98 18.7zm1-5.7c1 .5 2 1 2.8 2l8.4 8.3c.8.8 1.4 1.7 1.8 2.7a8.2 8.2 0 0 1-1.9 9.1l-5.3 5.5a51.2 51.2 0 0 1 3 8h6.6a8.3 8.3 0 0 1 6 2.4 8.6 8.6 0 0 1 2.5 6v11.9a8.3 8.3 0 0 1-2.5 6 8.3 8.3 0 0 1-6 2.4h-7.6a59.4 59.4 0 0 1-3.5 7.8l4.7 4.7h.1A8.5 8.5 0 0 1 110 99c-.4 1-1 1.9-1.7 2.7h-.1l-8.5 8.4a8.1 8.1 0 0 1-11.9 0l-5.3-5.3a48.8 48.8 0 0 1-8 3v6.7a8.3 8.3 0 0 1-2.5 5.9h-.1c-.8.8-1.7 1.4-2.7 1.9-1 .4-2 .6-3.2.6H54c-2.3 0-4.3-.8-5.9-2.5a8.3 8.3 0 0 1-2.5-6v-7.6a67.4 67.4 0 0 1-7.7-3.5L33 108l-.1.1a8.5 8.5 0 0 1-9.1 1.8c-1-.4-1.9-1-2.7-1.7l-.1-.1-8.4-8.5a8.2 8.2 0 0 1 0-11.9l5.4-5.3a43 43 0 0 1-3-8H8.4a8.3 8.3 0 0 1-6-2.5v-.1A8.6 8.6 0 0 1 0 65.9V54A8.5 8.5 0 0 1 2.5 48a8.3 8.3 0 0 1 6-2.5H16a59.4 59.4 0 0 1 3.6-7.7L15 33a8.4 8.4 0 0 1-1.9-9.3c.5-1 1-1.9 2-2.7l8.3-8.4C24 12 25 11.3 26 11a8.2 8.2 0 0 1 9.1 1.9l5.5 5.3a39.3 39.3 0 0 1 8-3V8.4a8.3 8.3 0 0 1 2.4-6A8.6 8.6 0 0 1 57 0h11.9a8.5 8.5 0 0 1 6 2.5 8.3 8.3 0 0 1 2.4 6V16a82.8 82.8 0 0 1 7.8 3.6l4.7-4.7a8.4 8.4 0 0 1 6-2.5c1.1 0 2.2.2 3.2.6zM61.4 35.3a26.6 26.6 0 0 1 10.2 2v.1A27.6 27.6 0 0 1 80 43 26 26 0 0 1 87 66.7 27.7 27.7 0 0 1 80 80a26 26 0 0 1-23.8 7A27.7 27.7 0 0 1 43 80a26 26 0 0 1-7.6-18.5 26.5 26.5 0 0 1 2-10.1h.1A27.7 27.7 0 0 1 43 43a26 26 0 0 1 18.4-7.7zm4.2 5.8a21.1 21.1 0 0 0-18.8 5.7 20.7 20.7 0 0 0-4.5 6.6 20.3 20.3 0 0 0-1.2 12.2c.3 1.3.7 2.6 1.2 3.7v.2a22.3 22.3 0 0 0 4.5 6.6 20.6 20.6 0 0 0 6.6 4.4 20.2 20.2 0 0 0 8 1.6 21.2 21.2 0 0 0 11.7-3.5 20.6 20.6 0 0 0 7.4-9.1 20.3 20.3 0 0 0 1.2-12.2c-.2-1.3-.6-2.6-1-3.8l-.2-.1a22.1 22.1 0 0 0-4.4-6.6 20.6 20.6 0 0 0-6.6-4.5c-1.2-.5-2.5-.9-3.9-1.2z"/></svg>